{"title":"Pitbull Ft. Chris Brown - International Love (2011) - H.264 - 72","uid":6958803,"size":90008716,"categoryP":"video","categoryS":"music_videos","magnet":"?xt=urn:btih:f8f6d089721052c9f9796c708fa05944654203b2&amp;dn=Pitbull+Ft.+Chris+Brown+-+International+Love+%282011%29+-+H.264+-+72&amp;tr=udp%3A%2F%2Ftracker.openbittorrent.com%3A80&amp;tr=udp%3A%2F%2Fopen.demonii.com%3A1337&amp;tr=udp%3A%2F%2Ftracker.coppersurfer.tk%3A6969&amp;tr=udp%3A%2F%2Fexodus.desync.com%3A6969","seeders":1,"leechers":0,"uploader":"AbhiHKRG","files":6,"time":1326693966,"description":"Cover :: &lt;a href=&quot;\nhttp://i.minus.com/iysj0rFobBlsI.png&quot; rel=&quot;nofollow&quot; target=&quot;_NEW&quot;&gt;\nhttp://i.minus.com/iysj0rFobBlsI.png&lt;/a&gt;\n\nScreen :: &lt;a href=&quot;\nhttp://i.minus.com/iBRdJzFjNM13z.png&quot; rel=&quot;nofollow&quot; target=&quot;_NEW&quot;&gt;\nhttp://i.minus.com/iBRdJzFjNM13z.png&lt;/a&gt;\n &lt;a href=&quot;\nhttp://i.minus.com/iZcfQfsF7HHsa.png&quot; rel=&quot;nofollow&quot; target=&quot;_NEW&quot;&gt;\nhttp://i.minus.com/iZcfQfsF7HHsa.png&lt;/a&gt;\n &lt;a href=&quot;\nhttp://i.minus.com/i7QUdvEIYChd2.png&quot; rel=&quot;nofollow&quot; target=&quot;_NEW&quot;&gt;\nhttp://i.minus.com/i7QUdvEIYChd2.png&lt;/a&gt;\n &lt;a href=&quot;\nhttp://i.minus.com/iULnV1umSCwyW.png&quot; rel=&quot;nofollow&quot; target=&quot;_NEW&quot;&gt;\nhttp://i.minus.com/iULnV1umSCwyW.png&lt;/a&gt;\n &lt;a href=&quot;\nhttp://i.minus.com/iKJEvV04ZCdYY.png&quot; rel=&quot;nofollow&quot; target=&quot;_NEW&quot;&gt;\nhttp://i.minus.com/iKJEvV04ZCdYY.png&lt;/a&gt;\n &lt;a href=&quot;\nhttp://i.minus.com/isr5kdBA5DlYe.png&quot; rel=&quot;nofollow&quot; target=&quot;_NEW&quot;&gt;\nhttp://i.minus.com/isr5kdBA5DlYe.png&lt;/a&gt;\n &lt;a href=&quot;\nhttp://i.minus.com/ii9c7tnRAZz13.png&quot; rel=&quot;nofollow&quot; target=&quot;_NEW&quot;&gt;\nhttp://i.minus.com/ii9c7tnRAZz13.png&lt;/a&gt;\n &lt;a href=&quot;\nhttp://i.minus.com/ih3sGem3waqtx.png&quot; rel=&quot;nofollow&quot; target=&quot;_NEW&quot;&gt;\nhttp://i.minus.com/ih3sGem3waqtx.png&lt;/a&gt;\n\n\nGeneral ::\nFormat                           : AVI\nFormat/Info                      : Audio Video Interleave\nFile size                        : 85.8 MiB\nDuration                         : 4mn 8s\nOverall bit rate                 : 2 902 Kbps\n\n\nVideo Info ::\nID                               : 0\nFormat                           : AVC\nFormat/Info                      : Advanced Video Codec\nFormat profile                   : &lt;a class=&quot;__cf_email__&quot; href=&quot;/cdn-cgi/l/email-protection&quot; data-cfemail=&quot;440c2d232c0408716a75&quot;&gt;[email&amp;#160;protected]&lt;/a&gt;&lt;script cf-hash='f9e31' type=&quot;text/javascript&quot;&gt;\n/* &lt;![CDATA[ */!function(){try{var t=&quot;currentScript&quot;in document?document.currentScript:function(){for(var t=document.getElementsByTagName(&quot;script&quot;),e=t.length;e--;)if(t[e].getAttribute(&quot;cf-hash&quot;))return t[e]}();if(t&amp;&amp;t.previousSibling){var e,r,n,i,c=t.previousSibling,a=c.getAttribute(&quot;data-cfemail&quot;);if(a){for(e=&quot;&quot;,r=parseInt(a.substr(0,2),16),n=2;a.length-n;n+=2)i=parseInt(a.substr(n,2),16)^r,e+=String.fromCharCode(i);e=document.createTextNode(e),c.parentNode.replaceChild(e,c)}}}catch(u){}}();/* ]]&gt; */&lt;/script&gt;\nFormat settings, CABAC           : Yes\nFormat settings, ReFrames        : 2 frames\nCodec ID                         : H264\nDuration                         : 10s 0ms\nBit rate                         : 2 569 Kbps\nWidth                            : 1 280 pixels\nHeight                           : 544 pixels\nDisplay aspect ratio             : 2.35:1\nFrame rate                       : 30.000 fps\nColor space                      : YUV\nChroma subsampling               : 4:2:0\nBit depth                        : 8 bits\nScan type                        : Progressive\nBits/(Pixel*Frame)               : 0.123\nStream size                      : 76.0 MiB (89%)\n\n\nAudio Info ::\nID                               : 1\nFormat                           : MPEG Audio\nFormat version                   : Version 1\nFormat profile                   : Layer 3\nCodec ID                         : 55\nCodec ID/Hint                    : MP3\nDuration                         : 4mn 8s\nBit rate mode                    : Constant\nBit rate                         : 320 Kbps\nChannel(s)                       : 2 channels\nSampling rate                    : 44.1 KHz\nCompression mode                 : Lossy\nStream size                      : 9.46 MiB (11%)","torrent":{"xt":"urn:btih:f8f6d089721052c9f9796c708fa05944654203b2","amp;dn":"Pitbull+Ft.+Chris+Brown+-+International+Love+%282011%29+-+H.264+-+72","amp;tr":["udp%3A%2F%2Ftracker.openbittorrent.com%3A80","udp%3A%2F%2Fopen.demonii.com%3A1337","udp%3A%2F%2Ftracker.coppersurfer.tk%3A6969","udp%3A%2F%2Fexodus.desync.com%3A6969"],"infoHash":"f8f6d089721052c9f9796c708fa05944654203b2","infoHashBuffer":{"type":"Buffer","data":[248,246,208,137,114,16,82,201,249,121,108,112,143,160,89,68,101,66,3,178]},"announce":[],"urlList":[]}}